<svg xmlns="http://www.w3.org/2000/svg" viewBox="0 0 64 64" role="img" aria-labelledby="title desc">
  <title id="title">Switchboard</title>
  <desc id="desc">A teal message bubble with routed switchboard lines.</desc>
  <rect width="64" height="64" rx="14" fill="#20242a" />
  <path
    fill="#0f766e"
    d="M15 11h34c5.5 0 10 4.5 10 10v18c0 5.5-4.5 10-10 10H36.7L24.9 58c-1.8 1.4-4.4.1-4.4-2.2V49H15C9.5 49 5 44.5 5 39V21c0-5.5 4.5-10 10-10Z"
  />
  <path
    fill="none"
    stroke="#f8fafc"
    stroke-linecap="round"
    stroke-width="6"
    d="M19 25h26"
  />
  <path
    fill="none"
    stroke="#b7f2e5"
    stroke-linecap="round"
    stroke-width="6"
    d="M19 39h13.5c7.5 0 8.1-8.5 16.5-8.5"
  />
  <circle cx="49" cy="30.5" r="5" fill="#fbbf24" />
  <circle cx="19" cy="25" r="3.1" fill="#20242a" opacity=".88" />
  <circle cx="19" cy="39" r="3.1" fill="#20242a" opacity=".88" />
</svg>
