<svg xmlns="http://www.w3.org/2000/svg" viewBox="0 0 64 64" role="img" aria-labelledby="title desc">
  <title id="title">Switchboard</title>
  <desc id="desc">Switchboard message routing mark.</desc>
  <style>
    .tile-a { stop-color: #f8fbff; }
    .tile-b { stop-color: #dcefff; }
    .mark { fill: #0369a1; }
    .ring { stroke: rgba(3, 105, 161, 0.18); }
    @media (prefers-color-scheme: dark) {
      .tile-a { stop-color: #182633; }
      .tile-b { stop-color: #071018; }
      .mark { fill: #67e8f9; }
      .ring { stroke: rgba(103, 232, 249, 0.22); }
    }
  </style>
  <defs>
    <linearGradient id="tile" x1="0" y1="0" x2="64" y2="64" gradientUnits="userSpaceOnUse">
      <stop class="tile-a" stop-color="#f8fbff" />
      <stop class="tile-b" offset="1" stop-color="#dcefff" />
    </linearGradient>
  </defs>
  <rect width="64" height="64" rx="14" fill="url(#tile)" />
  <rect class="ring" x="0.5" y="0.5" width="63" height="63" rx="13.5" fill="none" stroke="rgba(3, 105, 161, 0.18)" />
  <svg x="5" y="5" width="54" height="54" viewBox="0 0 1254 1254" overflow="visible">
    <g transform="translate(0 1254) scale(.1 -.1)">
      <path class="mark" fill="#0369a1" d="M4805 10980 c-882 -5 -1239 -10 -1290 -18 -182 -32 -240 -45 -372 -88 -730 -235 -1277 -893 -1388 -1669 -14 -98 -15 -366 -13 -2410 4 -2565 -2 -2350 74 -2602 57 -188 158 -402 265 -561 153 -225 411 -471 634 -604 191 -114 437 -209 643 -249 l62 -12 0 -478 c0 -460 1 -480 21 -534 61 -162 227 -266 403 -252 141 11 120 -1 1136 682 118 79 249 165 290 192 41 26 167 110 280 187 l205 140 1660 1 1660 0 110 27 c434 105 736 269 1025 558 339 338 549 781 590 1249 7 77 10 874 8 2386 l-3 2270 -23 117 c-55 286 -178 578 -348 822 -79 113 -270 317 -383 408 -304 245 -673 399 -1050 437 -109 12 -1914 12 -4196 1z m4187 -715 c293 -39 617 -220 812 -454 193 -231 298 -472 326 -746 7 -66 10 -845 8 -2300 l-4 -2200 -26 -105 c-71 -285 -193 -506 -383 -695 -245 -245 -555 -377 -920 -390 -66 -3 -579 -7 -1140 -10 -1447 -7 -2001 -14 -2060 -27 -54 -12 -224 -123 -748 -487 -471 -327 -812 -560 -819 -561 -4 0 -8 192 -10 427 l-3 428 -27 57 c-29 63 -90 127 -144 153 -37 17 -54 20 -278 50 -516 69 -940 432 -1104 945 -64 199 -62 168 -62 1216 l0 954 528 0 527 0 17 -48 c74 -207 251 -374 481 -453 254 -87 509 -46 724 115 108 82 213 219 249 328 16 48 17 50 48 44 60 -12 231 -103 307 -164 163 -131 241 -252 369 -572 150 -378 288 -598 515 -825 186 -187 325 -282 552 -375 168 -69 287 -100 412 -107 94 -5 104 -8 109 -27 3 -12 26 -61 50 -111 38 -74 61 -106 136 -180 172 -169 377 -246 616 -232 114 7 174 24 300 84 81 39 107 58 185 137 99 100 159 195 202 318 31 90 42 276 24 384 -39 221 -217 456 -423 558 -134 66 -199 81 -348 80 -137 0 -208 -15 -318 -65 -173 -78 -324 -236 -396 -414 -13 -30 -26 -58 -29 -61 -3 -4 -46 1 -96 10 -252 47 -460 164 -667 378 -169 175 -263 333 -396 667 -95 237 -169 380 -249 482 -16 20 -29 40 -29 43 0 3 459 5 1021 4 l1020 -3 18 -51 c29 -86 82 -165 171 -255 132 -133 288 -208 479 -231 227 -26 477 65 638 235 81 85 133 173 177 296 29 82 31 93 31 246 0 147 -3 166 -27 240 -87 257 -297 452 -568 527 -25 7 -103 12 -175 12 -105 0 -145 -4 -210 -22 -240 -69 -439 -248 -515 -465 l-18 -52 -1021 -3 c-679 -1 -1021 1 -1021 8 0 5 4 10 8 10 12 0 145 205 186 288 20 40 64 134 97 210 154 349 275 540 448 712 200 199 394 307 681 380 63 16 290 45 295 37 1 -1 10 -24 20 -52 21 -57 87 -164 135 -218 77 -88 232 -181 367 -219 114 -33 315 -32 428 1 255 74 446 263 526 521 21 65 24 96 24 230 0 136 -3 164 -23 225 -94 280 -290 468 -562 536 -111 28 -297 23 -404 -11 -254 -81 -431 -257 -521 -516 -2 -7 -41 -15 -92 -19 -485 -39 -884 -224 -1229 -571 -197 -198 -310 -376 -520 -817 -132 -278 -171 -341 -295 -471 -92 -98 -192 -169 -300 -214 -107 -44 -128 -48 -135 -26 -31 97 -73 168 -153 263 -137 163 -389 270 -611 258 -121 -7 -202 -28 -315 -82 -164 -79 -278 -197 -362 -372 l-44 -93 -525 0 -524 0 0 1015 c0 1125 0 1115 65 1312 89 267 268 516 493 688 103 79 311 184 433 219 76 22 174 39 279 49 19 2 1198 4 2620 5 2183 1 2602 -1 2692 -13z m-608 -1066 c71 -26 140 -93 172 -165 34 -77 34 -188 -1 -261 -83 -180 -282 -250 -457 -162 -49 25 -113 92 -140 147 -29 60 -35 163 -14 234 51 177 259 275 440 207z m-4041 -2147 c79 -35 123 -77 159 -150 29 -59 33 -76 32 -147 0 -68 -4 -89 -29 -138 -99 -199 -357 -249 -516 -100 -68 64 -104 147 -104 244 0 70 4 81 40 144 45 77 109 133 184 159 62 22 171 16 234 -12z m4406 -13 c117 -62 179 -178 169 -313 -9 -105 -82 -211 -183 -264 -43 -23 -62 -27 -140 -27 -78 0 -97 4 -147 28 -71 35 -137 107 -162 175 -13 39 -17 73 -15 135 4 76 8 90 40 143 70 112 169 166 299 161 63 -3 86 -9 139 -38z m-613 -2054 c59 -29 122 -93 155 -157 16 -31 24 -66 27 -124 4 -73 1 -88 -22 -140 -35 -77 -87 -129 -161 -165 -50 -24 -73 -29 -137 -29 -142 0 -242 59 -300 178 -29 59 -33 76 -32 147 0 100 28 159 109 233 102 93 242 115 361 57z" />
    </g>
  </svg>
</svg>
